<?xml version="1.0" encoding="utf-8" standalone="no"?><!DOCTYPE svg PUBLIC "-//W3C//DTD SVG 20010904//EN" "http://www.w3.org/TR/2001/REC-SVG-20010904/DTD/svg10.dtd"><svg xmlns="http://www.w3.org/2000/svg" width="474" height="367" xmlns:xlink="http://www.w3.org/1999/xlink"><source><![CDATA[Document->TokenizerFile: get lines
TokenizerFile-->Document: lines
Document->TokenizerFile: normalize lines
TokenizerFile-->Document: lines
Document->TokenizerBlock: get tokens
TokenizerBlock-->Document: tokens]]></source><desc></desc><defs><marker viewBox="0 0 5 5" markerWidth="5" markerHeight="5" orient="auto" refX="5" refY="2.5" id="markerArrowBlock"><path d="M 0 0 L 5 2.5 L 0 5 z"></path></marker><marker viewBox="0 0 9.6 16" markerWidth="4" markerHeight="16" orient="auto" refX="9.6" refY="8" id="markerArrowOpen"><path d="M 9.6,8 1.92,16 0,13.7 5.76,8 0,2.286 1.92,0 9.6,8 z"></path></marker></defs><g class="title"></g><g class="actor"><path d="M10,20C29.8,15.6 102.6,24.4 120.3,20.0C118.8,50.6 121.8,48.8 120.3,57.8C93.8,53.4 81.0,62.3 10.0,57.8C11.5,51.8 8.5,27.6 10.0,20.0" stroke="#000000" fill="#ffffff" style="stroke-width: 2;"></path><text x="20.609375" y="43.5234375" style="font-size: 16px; font-family: danielbd;"><tspan x="20">Document</tspan></text></g><g class="actor"><path d="M10,309.78125C79.5,314.2 64.9,305.4 120.3,309.8C121.8,336.4 118.8,333.7 120.3,347.6C97.3,343.2 27.6,352.0 10.0,347.6C8.5,315.8 11.5,324.5 10.0,309.8" stroke="#000000" fill="#ffffff" style="stroke-width: 2;"></path><text x="20.609375" y="333.3046875" style="font-size: 16px; font-family: danielbd;"><tspan x="20">Document</tspan></text></g><path d="M65.1,57.8C75.2,192.3 55.1,269.5 65.1,309.8" stroke="#000000" fill="none" style="stroke-width: 2;"></path><g class="actor"><path d="M143.34375,20C252.0,25.2 241.7,14.8 272.7,20.0C271.2,42.8 274.2,51.8 272.7,57.8C237.0,63.0 241.8,52.7 143.3,57.8C141.8,51.8 144.9,26.1 143.3,20.0" stroke="#000000" fill="#ffffff" style="stroke-width: 2;"></path><text x="153.34375" y="43.828125" style="font-size: 16px; font-family: danielbd;"><tspan x="153.34375">TokenizerFile</tspan></text></g><g class="actor"><path d="M143.34375,309.78125C252.0,304.6 164.0,315.0 272.7,309.8C274.2,319.5 271.2,329.9 272.7,347.6C252.0,342.4 221.3,352.8 143.3,347.6C144.9,316.8 141.8,339.5 143.3,309.8" stroke="#000000" fill="#ffffff" style="stroke-width: 2;"></path><text x="153.34375" y="333.609375" style="font-size: 16px; font-family: danielbd;"><tspan x="153.34375">TokenizerFile</tspan></text></g><path d="M208.0,57.8C218.1,267.7 198.0,98.2 208.0,309.8" stroke="#000000" fill="none" style="stroke-width: 2;"></path><g class="actor"><path d="M292.71875,20C317.1,26.1 339.6,13.9 445.0,20.0C446.5,38.3 443.5,41.1 445.0,57.8C415.5,63.9 408.4,51.8 292.7,57.8C291.2,48.0 294.2,48.8 292.7,20.0" stroke="#000000" fill="#ffffff" style="stroke-width: 2;"></path><text x="302.71875" y="44.140625" style="font-size: 16px; font-family: danielbd;"><tspan x="302.71875">TokenizerBlock</tspan></text></g><g class="actor"><path d="M292.71875,309.78125C329.3,315.9 408.4,303.7 445.0,309.8C446.5,324.4 443.5,334.9 445.0,347.6C408.4,341.5 405.3,353.7 292.7,347.6C294.2,326.5 291.2,338.5 292.7,309.8" stroke="#000000" fill="#ffffff" style="stroke-width: 2;"></path><text x="302.71875" y="333.921875" style="font-size: 16px; font-family: danielbd;"><tspan x="302.71875">TokenizerBlock</tspan></text></g><path d="M368.8,57.8C358.8,118.3 378.9,98.2 368.8,309.8" stroke="#000000" fill="none" style="stroke-width: 2;"></path><g class="signal"><text x="105.7109375" y="85.2890625" style="font-size: 16px; font-family: danielbd;"><tspan x="100.7890625">get lines</tspan></text><path d="M65.1,100.0C132.3,105.7 106.7,94.3 208.0,100.0" stroke="#000000" fill="none" style="stroke-width: 2; marker-end: url(&quot;#markerArrowBlock&quot;);"></path></g><g class="signal"><text x="119.8203125" y="129.890625" style="font-size: 16px; font-family: danielbd;"><tspan x="119.8203125">lines</tspan></text><path d="M208.0,137.2C88.0,131.5 133.1,142.9 65.1,137.2" stroke="#000000" fill="none" style="stroke-width: 2; stroke-dasharray: 6, 2; marker-end: url(&quot;#markerArrowBlock&quot;);"></path></g><g class="signal"><text x="75.75" y="167.109375" style="font-size: 16px; font-family: danielbd;"><tspan x="75.140625">normalize lines</tspan></text><path d="M65.1,174.4C126.5,168.7 165.0,180.1 208.0,174.4" stroke="#000000" fill="none" style="stroke-width: 2; marker-end: url(&quot;#markerArrowBlock&quot;);"></path></g><g class="signal"><text x="119.8203125" y="204.328125" style="font-size: 16px; font-family: danielbd;"><tspan x="119.8203125">lines</tspan></text><path d="M208.0,211.6C99.4,217.4 116.5,205.9 65.1,211.6" stroke="#000000" fill="none" style="stroke-width: 2; stroke-dasharray: 6, 2; marker-end: url(&quot;#markerArrowBlock&quot;);"></path></g><g class="signal"><text x="175.75" y="238.78125" style="font-size: 16px; font-family: danielbd;"><tspan x="170.828125">get tokens</tspan></text><path d="M65.1,253.2C280.3,265.3 118.6,241.0 368.8,253.2" stroke="#000000" fill="none" style="stroke-width: 2; marker-end: url(&quot;#markerArrowBlock&quot;);"></path></g><g class="signal"><text x="190.4609375" y="282.7734375" style="font-size: 16px; font-family: danielbd;"><tspan x="189.2421875">tokens</tspan></text><path d="M368.8,289.8C113.7,301.9 150.0,277.6 65.1,289.8" stroke="#000000" fill="none" style="stroke-width: 2; stroke-dasharray: 6, 2; marker-end: url(&quot;#markerArrowBlock&quot;);"></path></g></svg>