<?xml version="1.0" encoding="utf-8" standalone="no"?><!DOCTYPE svg PUBLIC "-//W3C//DTD SVG 20010904//EN" "http://www.w3.org/TR/2001/REC-SVG-20010904/DTD/svg10.dtd"><svg xmlns="http://www.w3.org/2000/svg" width="751" height="440" xmlns:xlink="http://www.w3.org/1999/xlink"><source><![CDATA[Document->TokenizerBlock: get tokens (lines)
Note over TokenizerBlock: For each line
TokenizerBlock->TokenBlock: factory()
TokenBlock-->TokenizerBlock:false or Specialized Token
TokenizerBlock->Specialized Token: tokenize
Note over TokenizerBlock: put Specialized token in tokens
TokenizerBlock-->Document: tokens
]]></source><desc></desc><defs><marker viewBox="0 0 5 5" markerWidth="5" markerHeight="5" orient="auto" refX="5" refY="2.5" id="markerArrowBlock"><path d="M 0 0 L 5 2.5 L 0 5 z"></path></marker><marker viewBox="0 0 9.6 16" markerWidth="4" markerHeight="16" orient="auto" refX="9.6" refY="8" id="markerArrowOpen"><path d="M 9.6,8 1.92,16 0,13.7 5.76,8 0,2.286 1.92,0 9.6,8 z"></path></marker></defs><g class="title"></g><g class="actor"><path d="M10,20C28.0,15.6 62.5,24.4 120.3,20.0C121.9,32.5 118.6,32.7 120.3,60.9C69.0,65.3 34.5,56.5 10.0,60.9C8.4,35.9 11.6,51.1 10.0,20.0" stroke="#000000" fill="#ffffff" style="stroke-width: 2;"></path><text x="20.609375" y="45.0625" style="font-size: 16px; font-family: danielbd;"><tspan x="20">Document</tspan></text></g><g class="actor"><path d="M10,379.359375C93.8,383.8 36.5,374.9 120.3,379.4C118.6,388.0 121.9,394.8 120.3,420.3C27.6,424.7 57.5,415.9 10.0,420.3C11.6,393.8 8.4,385.9 10.0,379.4" stroke="#000000" fill="#ffffff" style="stroke-width: 2;"></path><text x="20.609375" y="404.421875" style="font-size: 16px; font-family: danielbd;"><tspan x="20">Document</tspan></text></g><path d="M65.1,60.9C52.4,257.3 77.9,137.3 65.1,379.4" stroke="#000000" fill="none" style="stroke-width: 2;"></path><g class="actor"><path d="M153.21875,20C268.9,26.1 189.8,13.9 305.5,20.0C303.8,26.5 307.1,54.4 305.5,60.9C267.6,67.0 230.6,54.8 153.2,60.9C151.6,48.7 154.9,29.8 153.2,20.0" stroke="#000000" fill="#ffffff" style="stroke-width: 2;"></path><text x="163.21875" y="45.6796875" style="font-size: 16px; font-family: danielbd;"><tspan x="163.21875">TokenizerBlock</tspan></text></g><g class="actor"><path d="M153.21875,379.359375C281.1,373.3 214.9,385.4 305.5,379.4C307.1,392.0 303.8,413.7 305.5,420.3C243.8,426.4 281.1,414.2 153.2,420.3C151.6,406.5 154.9,389.2 153.2,379.4" stroke="#000000" fill="#ffffff" style="stroke-width: 2;"></path><text x="163.21875" y="405.0390625" style="font-size: 16px; font-family: danielbd;"><tspan x="163.21875">TokenizerBlock</tspan></text></g><path d="M229.3,60.9C242.1,137.3 216.6,111.9 229.3,379.4" stroke="#000000" fill="none" style="stroke-width: 2;"></path><g class="actor"><path d="M413.6796875,20C496.8,24.8 498.2,15.2 533.2,20.0C534.8,54.4 531.5,51.0 533.2,60.9C457.2,65.7 432.8,56.1 413.7,60.9C415.3,54.4 412.0,44.6 413.7,20.0" stroke="#000000" fill="#ffffff" style="stroke-width: 2;"></path><text x="423.6796875" y="45.6796875" style="font-size: 16px; font-family: danielbd;"><tspan x="423.6796875">TokenBlock</tspan></text></g><g class="actor"><path d="M413.6796875,379.359375C514.0,374.6 486.4,384.1 533.2,379.4C531.5,410.5 534.8,403.7 533.2,420.3C510.7,415.5 432.8,425.1 413.7,420.3C415.3,395.8 412.0,408.8 413.7,379.4" stroke="#000000" fill="#ffffff" style="stroke-width: 2;"></path><text x="423.6796875" y="405.0390625" style="font-size: 16px; font-family: danielbd;"><tspan x="423.6796875">TokenBlock</tspan></text></g><path d="M473.4,60.9C486.2,115.3 460.7,253.3 473.4,379.4" stroke="#000000" fill="none" style="stroke-width: 2;"></path><g class="actor"><path d="M553.1640625,20C593.6,13.3 615.4,26.7 721.8,20.0C720.2,51.1 723.5,39.4 721.8,60.9C657.9,67.7 694.8,54.2 553.2,60.9C551.5,29.8 554.8,51.1 553.2,20.0" stroke="#000000" fill="#ffffff" style="stroke-width: 2;"></path><text x="564.3828125" y="43.515625" style="font-size: 16px; font-family: danielbd;"><tspan x="563.1640625">Specialized Token</tspan></text></g><g class="actor"><path d="M553.1640625,379.359375C593.6,386.1 626.7,372.6 721.8,379.4C720.2,398.1 723.5,390.3 721.8,420.3C681.4,413.5 665.0,427.0 553.2,420.3C551.5,409.3 554.8,397.6 553.2,379.4" stroke="#000000" fill="#ffffff" style="stroke-width: 2;"></path><text x="564.3828125" y="402.875" style="font-size: 16px; font-family: danielbd;"><tspan x="563.1640625">Specialized Token</tspan></text></g><path d="M637.5,60.9C650.2,195.2 624.8,141.6 637.5,379.4" stroke="#000000" fill="none" style="stroke-width: 2;"></path><g class="signal"><text x="80.0625" y="88.6796875" style="font-size: 16px; font-family: danielbd;"><tspan x="75.140625">get tokens (lines)</tspan></text><path d="M65.1,103.7C129.9,110.3 146.1,97.1 229.3,103.7" stroke="#000000" fill="none" style="stroke-width: 2; marker-end: url(&quot;#markerArrowBlock&quot;);"></path></g><g class="note"><path d="M169.8203125,123.6875C202.5,128.4 198.4,118.9 288.9,123.7C287.8,130.2 290.0,147.1 288.9,151.5C241.6,156.3 188.9,146.8 169.8,151.5C170.9,128.1 168.7,130.9 169.8,123.7" stroke="#000000" fill="#ffffff" style="stroke-width: 2;"></path><text x="175.4296875" y="142.828125" style="font-size: 16px; font-family: danielbd;"><tspan x="174.8203125">For each line</tspan></text></g><g class="signal"><text x="313.28125" y="179.2890625" style="font-size: 16px; font-family: danielbd;"><tspan x="312.671875">factory()</tspan></text><path d="M229.3,194.3C268.4,184.5 356.3,204.1 473.4,194.3" stroke="#000000" fill="none" style="stroke-width: 2; marker-end: url(&quot;#markerArrowBlock&quot;);"></path></g><g class="signal"><text x="239.953125" y="222.3515625" style="font-size: 16px; font-family: danielbd;"><tspan x="239.34375">false or Specialized Token</tspan></text><path d="M473.4,235.2C414.8,245.0 399.6,225.5 229.3,235.2" stroke="#000000" fill="none" style="stroke-width: 2; stroke-dasharray: 6, 2; marker-end: url(&quot;#markerArrowBlock&quot;);"></path></g><g class="signal"><text x="399.671875" y="264.8203125" style="font-size: 16px; font-family: danielbd;"><tspan x="398.453125">tokenize</tspan></text><path d="M229.3,271.8C324.5,255.5 327.3,288.2 637.5,271.8" stroke="#000000" fill="none" style="stroke-width: 2; marker-end: url(&quot;#markerArrowBlock&quot;);"></path></g><g class="note"><path d="M92.234375,291.828125C288.3,280.9 200.0,302.8 366.5,291.8C365.2,296.8 367.7,299.2 366.5,322.8C136.1,311.8 237.4,333.7 92.2,322.8C91.0,300.4 93.5,303.0 92.2,291.8" stroke="#000000" fill="#ffffff" style="stroke-width: 2;"></path><text x="97.234375" y="310.34375" style="font-size: 16px; font-family: danielbd;"><tspan x="97.234375">put Specialized token in tokens</tspan></text></g><g class="signal"><text x="120.7109375" y="352.3515625" style="font-size: 16px; font-family: danielbd;"><tspan x="119.4921875">tokens</tspan></text><path d="M229.3,359.4C104.5,352.8 171.3,365.9 65.1,359.4" stroke="#000000" fill="none" style="stroke-width: 2; stroke-dasharray: 6, 2; marker-end: url(&quot;#markerArrowBlock&quot;);"></path></g></svg>