<?xml version="1.0" encoding="UTF-8" standalone="no"?>
<svg
   xmlns:dc="http://purl.org/dc/elements/1.1/"
   xmlns:cc="http://creativecommons.org/ns#"
   xmlns:rdf="http://www.w3.org/1999/02/22-rdf-syntax-ns#"
   xmlns:svg="http://www.w3.org/2000/svg"
   xmlns="http://www.w3.org/2000/svg"
   xmlns:sodipodi="http://sodipodi.sourceforge.net/DTD/sodipodi-0.dtd"
   xmlns:inkscape="http://www.inkscape.org/namespaces/inkscape"
   viewBox="0 0 505.49103 505.49103"
   height="505.49103"
   width="505.49103"
   xml:space="preserve"
   id="svg2"
   version="1.1"
   sodipodi:docname="vischio.svg"
   inkscape:version="0.92.2 (5c3e80d, 2017-08-06)"><sodipodi:namedview
     pagecolor="#ffffff"
     bordercolor="#666666"
     borderopacity="1"
     objecttolerance="10"
     gridtolerance="10"
     guidetolerance="10"
     inkscape:pageopacity="0"
     inkscape:pageshadow="2"
     inkscape:window-width="2238"
     inkscape:window-height="1776"
     id="namedview95"
     showgrid="false"
     fit-margin-top="0"
     fit-margin-left="0"
     fit-margin-right="0"
     fit-margin-bottom="0"
     inkscape:zoom="1.1799641"
     inkscape:cx="121.21255"
     inkscape:cy="176.00196"
     inkscape:window-x="0"
     inkscape:window-y="22"
     inkscape:window-maximized="0"
     inkscape:current-layer="svg2" /><metadata
     id="metadata8"><rdf:RDF><cc:Work
         rdf:about=""><dc:format>image/svg+xml</dc:format><dc:type
           rdf:resource="http://purl.org/dc/dcmitype/StillImage" /><dc:title></dc:title></cc:Work></rdf:RDF></metadata><defs
     id="defs6" /><g
     id="g480"
     transform="translate(-123.52737,-93.422978)"
     inkscape:export-xdpi="61.27"
     inkscape:export-ydpi="61.27"><path
       inkscape:connector-curvature="0"
       d="m 272.57333,282.56535 10e-4,52.31733 -66.13467,66.13466 15.65734,15.656 50.47866,-50.47866 -0.001,180.14533 22.14,-10e-4 0.001,-120.96133 50.48,50.48 15.656,-15.656 -66.18533,-66.13466 V 282.56401 Z"
       style="fill:#b1d23c;fill-opacity:1;fill-rule:nonzero;stroke:none;stroke-width:0.13333333"
       id="path14" /><path
       inkscape:connector-curvature="0"
       d="m 423.99999,291.66668 -60.984,-61.33333 H 470.69465 V 207.66668 H 303.83333 l 60.91599,-60.52933 -15.656,-15.656 -76.57199,76.18533 h -47.73334 l -48.51466,-47.18266 c -4.32267,-4.32267 -20.06933,10.66666 -15.74533,14.99066 l 306.02932,305.65866 15.656,-15.65466 -61.98133,-61.812 h 96.868 c 6.11466,-0.172 11.07066,-5.12667 11.07066,-11.24 0,-6.11334 -4.95733,-11.07067 -11.06933,-11.06934 H 398.09066 L 246.92799,230.33335 h 84.77467 l 76.57333,76.43333 z"
       style="fill:#b1d23c;fill-opacity:1;fill-rule:nonzero;stroke:none;stroke-width:0.13333333"
       id="path16" /><path
       inkscape:connector-curvature="0"
       d="m 272.57466,519.42667 -17.14133,22.97467 c -4.46134,5.908 -7.06667,13.26013 -7.06934,21.23253 0,19.4844 15.796,35.28014 35.28,35.28014 19.484,0 35.28,-15.79574 35.28,-35.28014 0,-7.9724 -2.60666,-15.32453 -7.06666,-21.2312 l -17.14267,-22.97466 z"
       style="fill:#b1d23c;fill-opacity:1;fill-rule:nonzero;stroke:none;stroke-width:0.13333333"
       id="path18" /><path
       inkscape:connector-curvature="0"
       d="m 498.66665,458.33334 -27.77866,-4.18133 -15.65467,15.65467 4.124,28.36666 c 1.024,7.32933 4.38134,14.37333 10.01733,20.01067 13.77734,13.77733 36.11467,13.77733 49.892,0 13.77734,-13.77734 13.77734,-36.11467 0,-49.89067 -5.63733,-5.63733 -12.68,-8.992 -20.6,-9.96 z"
       style="fill:#b1d23c;fill-opacity:1;fill-rule:nonzero;stroke:none;stroke-width:0.13333333"
       id="path20" /><path
       inkscape:connector-curvature="0"
       d="m 378.66666,454.33334 -28.19734,-4.51466 -15.656,15.65466 4.124,28.36667 c 1.02534,7.332 4.38,14.37466 10.01734,20.012 13.77733,13.77733 36.11466,13.77733 49.892,0 13.77733,-13.77734 13.77733,-36.116 0.001,-49.892 -5.64,-5.63733 -12.684,-8.99333 -20.18133,-9.62667 z"
       style="fill:#b1d23c;fill-opacity:1;fill-rule:nonzero;stroke:none;stroke-width:0.13333333"
       id="path22" /><path
       inkscape:connector-curvature="0"
       d="m 188.45733,394.75868 c -7.33067,1.024 -14.37467,4.38 -20.012,10.01733 -13.77733,13.776 -13.77733,36.11333 10e-4,49.892 13.77734,13.77733 36.11467,13.77733 49.892,0 5.636,-5.63733 8.992,-12.68 10.016,-20.01067 l 4.12533,-28.36666 -15.65466,-15.65467 z"
       style="fill:#b1d23c;fill-opacity:1;fill-rule:nonzero;stroke:none;stroke-width:0.13333333"
       id="path24" /><path
       inkscape:connector-curvature="0"
       d="m 498.66665,183.66668 c -7.56666,0.132 -14.91866,2.73867 -20.82666,7.2 l -23.17333,17.14267 v 22.14133 l 23.17333,17.14133 c 5.908,4.46134 13.26,7.06667 21.232,7.068 19.484,0 35.28,-15.796 35.28,-35.28 0,-19.48666 -15.79467,-35.28133 -35.68534,-35.41333 z"
       style="fill:#b1d23c;fill-opacity:1;fill-rule:nonzero;stroke:none;stroke-width:0.13333333"
       id="path26" /><path
       inkscape:connector-curvature="0"
       d="m 537.33332,363.66668 -22.66667,17.11333 v 22.14 l 23.25467,17.14133 c 5.90667,4.45867 13.26267,7.06667 21.23333,7.06667 19.48534,0 35.27867,-15.79467 35.27867,-35.27867 0,-19.484 -15.79333,-35.27866 -35.27867,-35.27866 -7.97066,0 -15.324,2.608 -21.82133,7.096 z"
       style="fill:#b1d23c;fill-opacity:1;fill-rule:nonzero;stroke:none;stroke-width:0.13333333"
       id="path28" /><path
       inkscape:connector-curvature="0"
       d="m 430.66666,273.00001 -28.49734,-3.65333 -15.65466,15.656 4.124,28.36533 c 1.024,7.32934 4.38,14.37467 10.01866,20.01067 13.776,13.77867 36.11334,13.77867 49.892,0 13.77734,-13.77867 13.77734,-36.11467 0,-49.892 -5.64,-5.63733 -12.68133,-8.992 -19.88266,-10.48667 z"
       style="fill:#b1d23c;fill-opacity:1;fill-rule:nonzero;stroke:none;stroke-width:0.13333333"
       id="path30" /><path
       inkscape:connector-curvature="0"
       d="m 341.33332,103.66668 c -4.99333,5.73867 -8.34933,12.78134 -9.37333,20.11334 l -4.124,28.36666 15.65467,15.656 28.368,-4.124 c 7.32933,-1.02533 14.37333,-4.38133 20.01066,-10.01733 13.77734,-13.77733 13.77734,-36.11467 0,-49.892 -13.77866,-13.778665 -36.116,-13.777332 -50.536,-0.10267 z"
       style="fill:#b1d23c;fill-opacity:1;fill-rule:nonzero;stroke:none;stroke-width:0.13333333"
       id="path32" /><path
       inkscape:connector-curvature="0"
       d="m 275.01733,338.81201 c 3.77733,10.37867 -1.57467,21.856 -11.95334,25.63333 -10.38,3.77867 -21.85733,-1.57333 -25.63466,-11.95333 -3.77867,-10.37866 1.57333,-21.856 11.95333,-25.63333 10.37867,-3.77867 21.856,1.57333 25.63467,11.95333"
       style="fill:#ffffff;fill-opacity:1;fill-rule:nonzero;stroke:none;stroke-width:0.13333333"
       id="path34" /><path
       inkscape:connector-curvature="0"
       d="m 275.01733,338.81201 c 3.77733,10.37867 -1.57467,21.856 -11.95334,25.63333 -10.38,3.77867 -21.85733,-1.57333 -25.63466,-11.95333 -3.77867,-10.38 1.57333,-21.856 11.95333,-25.63333 10.37867,-3.77867 21.856,1.57333 25.63467,11.95333"
       style="fill:none;stroke:#c0c0c0;stroke-width:2.66666651;stroke-linecap:round;stroke-linejoin:round;stroke-miterlimit:10;stroke-dasharray:none;stroke-opacity:1"
       id="path36" /><path
       inkscape:connector-curvature="0"
       d="m 244.49066,346.71201 c 0.37733,1.03734 -0.15867,2.18534 -1.196,2.56267 -1.03733,0.37867 -2.18533,-0.15733 -2.564,-1.19467 -0.37733,-1.03866 0.15733,-2.18533 1.196,-2.564 1.03733,-0.37733 2.18533,0.15734 2.564,1.196"
       style="fill:#ebebeb;fill-opacity:1;fill-rule:nonzero;stroke:none;stroke-width:0.13333333"
       id="path38" /><path
       inkscape:connector-curvature="0"
       d="m 249.56399,344.66401 c 0.37734,1.03867 -0.15733,2.18534 -1.19466,2.564 -1.03867,0.37734 -2.18667,-0.15733 -2.564,-1.196 -0.37734,-1.03733 0.15733,-2.18533 1.19466,-2.56266 1.03867,-0.37867 2.18534,0.15733 2.564,1.19466"
       style="fill:#ebebeb;fill-opacity:1;fill-rule:nonzero;stroke:none;stroke-width:0.13333333"
       id="path40" /><path
       inkscape:connector-curvature="0"
       d="m 251.49866,349.98001 c 0.37733,1.03867 -0.15733,2.18533 -1.196,2.56267 -1.03733,0.37866 -2.18533,-0.15734 -2.56267,-1.19467 -0.37866,-1.03733 0.15734,-2.18533 1.196,-2.56266 1.03734,-0.37867 2.18534,0.15733 2.56267,1.19466"
       style="fill:#ebebeb;fill-opacity:1;fill-rule:nonzero;stroke:none;stroke-width:0.13333333"
       id="path42" /><path
       inkscape:connector-curvature="0"
       d="m 246.18266,351.91468 c 0.37867,1.03733 -0.15733,2.18533 -1.19467,2.564 -1.03866,0.37733 -2.18533,-0.15734 -2.564,-1.196 -0.37733,-1.03734 0.15734,-2.18534 1.196,-2.564 1.03734,-0.37734 2.18534,0.15866 2.56267,1.196"
       style="fill:#ebebeb;fill-opacity:1;fill-rule:nonzero;stroke:none;stroke-width:0.13333333"
       id="path44" /><path
       inkscape:connector-curvature="0"
       d="m 274.72933,356.39334 c 5.52266,-9.56533 17.75466,-12.84266 27.32,-7.31999 9.56666,5.52266 12.844,17.75466 7.32133,27.31999 -5.52267,9.56667 -17.75467,12.844 -27.32133,7.32134 -9.56534,-5.524 -12.84267,-17.75467 -7.32,-27.32134"
       style="fill:#ffffff;fill-opacity:1;fill-rule:nonzero;stroke:none;stroke-width:0.13333333"
       id="path46" /><path
       inkscape:connector-curvature="0"
       d="m 274.72933,356.39334 c 5.52266,-9.56533 17.75466,-12.84266 27.32,-7.31999 9.56666,5.52266 12.844,17.75466 7.32133,27.31999 -5.52267,9.56667 -17.75467,12.844 -27.32133,7.32134 -9.56534,-5.524 -12.84267,-17.75467 -7.32,-27.32134"
       style="fill:none;stroke:#c0c0c0;stroke-width:2.66666651;stroke-linecap:round;stroke-linejoin:round;stroke-miterlimit:10;stroke-dasharray:none;stroke-opacity:1"
       id="path48" /><path
       inkscape:connector-curvature="0"
       d="m 300.40266,374.70001 c 0.55333,-0.956 1.776,-1.284 2.73333,-0.732 0.956,0.55333 1.284,1.776 0.732,2.732 -0.55333,0.95733 -1.776,1.28533 -2.732,0.732 -0.95733,-0.552 -1.28533,-1.77467 -0.73333,-2.732"
       style="fill:#ebebeb;fill-opacity:1;fill-rule:nonzero;stroke:none;stroke-width:0.13333333"
       id="path50" /><path
       inkscape:connector-curvature="0"
       d="m 295.57333,372.12934 c 0.552,-0.956 1.776,-1.284 2.732,-0.732 0.956,0.552 1.284,1.776 0.732,2.732 -0.552,0.956 -1.776,1.28534 -2.732,0.732 -0.956,-0.552 -1.284,-1.776 -0.732,-2.732"
       style="fill:#ebebeb;fill-opacity:1;fill-rule:nonzero;stroke:none;stroke-width:0.13333333"
       id="path52" /><path
       inkscape:connector-curvature="0"
       d="m 298.40266,367.23068 c 0.552,-0.95734 1.77467,-1.284 2.73067,-0.732 0.95733,0.552 1.28533,1.77466 0.73333,2.732 -0.55333,0.956 -1.776,1.284 -2.73333,0.732 -0.956,-0.552 -1.284,-1.776 -0.73067,-2.732"
       style="fill:#ebebeb;fill-opacity:1;fill-rule:nonzero;stroke:none;stroke-width:0.13333333"
       id="path54" /><path
       inkscape:connector-curvature="0"
       d="m 303.30133,370.05868 c 0.552,-0.956 1.77466,-1.284 2.732,-0.732 0.956,0.552 1.284,1.776 0.732,2.732 -0.55334,0.95733 -1.776,1.284 -2.732,0.732 -0.95734,-0.552 -1.28534,-1.77467 -0.732,-2.732"
       style="fill:#ebebeb;fill-opacity:1;fill-rule:nonzero;stroke:none;stroke-width:0.13333333"
       id="path56" /><path
       inkscape:connector-curvature="0"
       d="m 255.33333,366.14001 c 11.04533,0 20,8.95333 20,20 0,11.04533 -8.95467,20 -20,20 -11.04534,0 -20,-8.95467 -20,-20 0,-11.04667 8.95466,-20 20,-20"
       style="fill:#ffffff;fill-opacity:1;fill-rule:nonzero;stroke:none;stroke-width:0.13333333"
       id="path58" /><path
       inkscape:connector-curvature="0"
       d="m 255.33333,366.14001 c 11.04533,0 20,8.95333 20,20 0,11.04533 -8.95467,20 -20,20 -11.04534,0 -20,-8.95467 -20,-20 0,-11.04667 8.95466,-20 20,-20"
       style="fill:none;stroke:#c0c0c0;stroke-width:2.66666651;stroke-linecap:round;stroke-linejoin:round;stroke-miterlimit:10;stroke-dasharray:none;stroke-opacity:1"
       id="path60" /><path
       inkscape:connector-curvature="0"
       d="m 252.31599,397.52668 c 1.10534,0 2,0.896 2,2 0,1.10533 -0.89466,2 -2,2 -1.104,0 -2,-0.89467 -2,-2 0,-1.104 0.896,-2 2,-2"
       style="fill:#ebebeb;fill-opacity:1;fill-rule:nonzero;stroke:none;stroke-width:0.13333333"
       id="path62" /><path
       inkscape:connector-curvature="0"
       d="m 252.12799,392.05868 c 1.104,0 2,0.896 2,2 0,1.10533 -0.896,2 -2,2 -1.104,0 -2,-0.89467 -2,-2 0,-1.104 0.896,-2 2,-2"
       style="fill:#ebebeb;fill-opacity:1;fill-rule:nonzero;stroke:none;stroke-width:0.13333333"
       id="path64" /><path
       inkscape:connector-curvature="0"
       d="m 257.78533,392.05868 c 1.104,0 2,0.896 2,2 0,1.10533 -0.896,2 -2,2 -1.10534,0 -2,-0.89467 -2,-2 0,-1.104 0.89466,-2 2,-2"
       style="fill:#ebebeb;fill-opacity:1;fill-rule:nonzero;stroke:none;stroke-width:0.13333333"
       id="path66" /><path
       inkscape:connector-curvature="0"
       d="m 257.78533,397.71601 c 1.104,0 2,0.896 2,2 0,1.104 -0.896,2 -2,2 -1.10534,0 -2,-0.896 -2,-2 0,-1.104 0.89466,-2 2,-2"
       style="fill:#ebebeb;fill-opacity:1;fill-rule:nonzero;stroke:none;stroke-width:0.13333333"
       id="path68" /><path
       inkscape:connector-curvature="0"
       d="m 283.56399,486.13067 c 7.81067,-7.81066 20.47467,-7.81066 28.284,0 7.812,7.81067 7.812,20.47334 0,28.284 -7.80933,7.81067 -20.47333,7.81067 -28.284,0 -7.81066,-7.81066 -7.81066,-20.47333 0,-28.284"
       style="fill:#ffffff;fill-opacity:1;fill-rule:nonzero;stroke:none;stroke-width:0.13333333"
       id="path70" /><path
       inkscape:connector-curvature="0"
       d="m 283.56399,486.13067 c 7.81067,-7.81066 20.47467,-7.81066 28.284,0 7.812,7.81067 7.812,20.47334 0,28.284 -7.80933,7.81067 -20.47333,7.81067 -28.284,0 -7.81066,-7.81066 -7.81066,-20.47333 0,-28.284"
       style="fill:none;stroke:#c0c0c0;stroke-width:2.66666651;stroke-linecap:round;stroke-linejoin:round;stroke-miterlimit:10;stroke-dasharray:none;stroke-opacity:1"
       id="path72" /><path
       inkscape:connector-curvature="0"
       d="m 303.62533,510.45867 c 0.78133,-0.78133 2.048,-0.78133 2.82933,0 0.78,0.78134 0.78,2.04667 0,2.828 -0.78133,0.78134 -2.048,0.78134 -2.82933,0 -0.78,-0.78133 -0.78,-2.04666 0,-2.828"
       style="fill:#ebebeb;fill-opacity:1;fill-rule:nonzero;stroke:none;stroke-width:0.13333333"
       id="path74" /><path
       inkscape:connector-curvature="0"
       d="m 299.62533,506.72534 c 0.78133,-0.78133 2.048,-0.78133 2.82933,0 0.78,0.78133 0.78,2.04667 0,2.828 -0.78133,0.78133 -2.048,0.78133 -2.82933,0 -0.78,-0.78133 -0.78,-2.04667 0,-2.828"
       style="fill:#ebebeb;fill-opacity:1;fill-rule:nonzero;stroke:none;stroke-width:0.13333333"
       id="path76" /><path
       inkscape:connector-curvature="0"
       d="m 303.62533,502.72534 c 0.78133,-0.78133 2.048,-0.78133 2.82933,0 0.78,0.78133 0.78,2.04667 0,2.828 -0.78133,0.78133 -2.048,0.78133 -2.82933,0 -0.78,-0.78133 -0.78,-2.04667 0,-2.828"
       style="fill:#ebebeb;fill-opacity:1;fill-rule:nonzero;stroke:none;stroke-width:0.13333333"
       id="path78" /><path
       inkscape:connector-curvature="0"
       d="m 307.62533,506.72534 c 0.78133,-0.78133 2.048,-0.78133 2.82933,0 0.78,0.78133 0.78,2.04667 0,2.828 -0.78133,0.78133 -2.048,0.78133 -2.82933,0 -0.78,-0.78133 -0.78,-2.04667 0,-2.828"
       style="fill:#ebebeb;fill-opacity:1;fill-rule:nonzero;stroke:none;stroke-width:0.13333333"
       id="path80" /><path
       inkscape:connector-curvature="0"
       d="m 264.93066,489.96401 c 10.38,3.77733 15.73067,15.25466 11.95333,25.63466 -3.77733,10.38 -15.25466,15.73067 -25.63333,11.95334 -10.38,-3.77867 -15.732,-15.25467 -11.95467,-25.63467 3.77867,-10.37867 15.25467,-15.732 25.63467,-11.95333"
       style="fill:#ffffff;fill-opacity:1;fill-rule:nonzero;stroke:none;stroke-width:0.13333333"
       id="path82" /><path
       inkscape:connector-curvature="0"
       d="m 264.93066,489.96401 c 10.38,3.77733 15.73067,15.25466 11.95333,25.63466 -3.77733,10.37867 -15.25466,15.73067 -25.63333,11.95334 -10.38,-3.77867 -15.732,-15.25467 -11.95467,-25.63467 3.77867,-10.37867 15.25467,-15.732 25.63467,-11.95333"
       style="fill:none;stroke:#c0c0c0;stroke-width:2.66666651;stroke-linecap:round;stroke-linejoin:round;stroke-miterlimit:10;stroke-dasharray:none;stroke-opacity:1"
       id="path84" /><path
       inkscape:connector-curvature="0"
       d="m 251.35999,518.42667 c 1.03867,0.37867 1.57334,1.52534 1.196,2.564 -0.37733,1.03734 -1.52533,1.57334 -2.564,1.19467 -1.03733,-0.37733 -1.57333,-1.52533 -1.19466,-2.56267 0.37733,-1.03866 1.52533,-1.57333 2.56266,-1.196"
       style="fill:#ebebeb;fill-opacity:1;fill-rule:nonzero;stroke:none;stroke-width:0.13333333"
       id="path86" /><path
       inkscape:connector-curvature="0"
       d="m 253.05333,513.22401 c 1.03866,0.37866 1.57333,1.52533 1.196,2.564 -0.37734,1.03733 -1.52534,1.57333 -2.564,1.19466 -1.03734,-0.37733 -1.57334,-1.52533 -1.19467,-2.564 0.37733,-1.03733 1.52533,-1.572 2.56267,-1.19466"
       style="fill:#ebebeb;fill-opacity:1;fill-rule:nonzero;stroke:none;stroke-width:0.13333333"
       id="path88" /><path
       inkscape:connector-curvature="0"
       d="m 258.36933,515.15867 c 1.03733,0.37734 1.57333,1.52534 1.19466,2.564 -0.37733,1.03734 -1.52533,1.572 -2.56266,1.19467 -1.03867,-0.37733 -1.57334,-1.52533 -1.196,-2.56267 0.37866,-1.03866 1.52533,-1.57333 2.564,-1.196"
       style="fill:#ebebeb;fill-opacity:1;fill-rule:nonzero;stroke:none;stroke-width:0.13333333"
       id="path90" /><path
       inkscape:connector-curvature="0"
       d="m 256.43466,520.47467 c 1.03733,0.37734 1.57333,1.52534 1.19467,2.564 -0.37734,1.03734 -1.52534,1.572 -2.56267,1.19467 -1.03867,-0.37733 -1.57333,-1.52533 -1.196,-2.564 0.37867,-1.03733 1.52533,-1.572 2.564,-1.19467"
       style="fill:#ebebeb;fill-opacity:1;fill-rule:nonzero;stroke:none;stroke-width:0.13333333"
       id="path92" /><path
       inkscape:connector-curvature="0"
       d="m 364.98932,216.25068 c 8.46134,-7.1 21.07734,-5.996 28.17734,2.46533 7.1,8.46134 5.996,21.07734 -2.46534,28.17734 -8.46133,7.1 -21.07733,5.996 -28.17733,-2.46534 -7.1,-8.46133 -5.996,-21.07733 2.46533,-28.17733"
       style="fill:#ffffff;fill-opacity:1;fill-rule:nonzero;stroke:none;stroke-width:0.13333333"
       id="path94" /><path
       inkscape:connector-curvature="0"
       d="m 364.98932,216.25068 c 8.46134,-7.1 21.07734,-5.996 28.17734,2.46533 7.1,8.46134 5.996,21.07734 -2.46534,28.17734 -8.46133,7.1 -21.07733,5.996 -28.17733,-2.46534 -7.1,-8.46133 -5.996,-21.07733 2.46533,-28.17733"
       style="fill:none;stroke:#c0c0c0;stroke-width:2.66666651;stroke-linecap:round;stroke-linejoin:round;stroke-miterlimit:10;stroke-dasharray:none;stroke-opacity:1"
       id="path96" /><path
       inkscape:connector-curvature="0"
       d="m 382.85466,242.23468 c 0.84533,-0.70933 2.10666,-0.59867 2.81733,0.24667 0.70933,0.84666 0.6,2.108 -0.24667,2.81733 -0.84666,0.71067 -2.108,0.6 -2.81733,-0.24667 -0.71067,-0.84533 -0.6,-2.10666 0.24667,-2.81733"
       style="fill:#ebebeb;fill-opacity:1;fill-rule:nonzero;stroke:none;stroke-width:0.13333333"
       id="path98" /><path
       inkscape:connector-curvature="0"
       d="m 379.19466,238.16668 c 0.84666,-0.70933 2.108,-0.59867 2.81733,0.24667 0.71067,0.84666 0.6,2.108 -0.24533,2.81733 -0.84667,0.71067 -2.108,0.6 -2.81867,-0.24533 -0.70933,-0.84667 -0.6,-2.108 0.24667,-2.81867"
       style="fill:#ebebeb;fill-opacity:1;fill-rule:nonzero;stroke:none;stroke-width:0.13333333"
       id="path100" /><path
       inkscape:connector-curvature="0"
       d="m 383.52799,234.53068 c 0.84667,-0.70933 2.108,-0.6 2.81733,0.24667 0.71067,0.84666 0.6,2.108 -0.24533,2.81733 -0.84667,0.71067 -2.108,0.6 -2.81867,-0.24667 -0.70933,-0.84533 -0.6,-2.10666 0.24667,-2.81733"
       style="fill:#ebebeb;fill-opacity:1;fill-rule:nonzero;stroke:none;stroke-width:0.13333333"
       id="path102" /><path
       inkscape:connector-curvature="0"
       d="m 387.16399,238.86401 c 0.84667,-0.70933 2.108,-0.6 2.81733,0.24667 0.71067,0.84667 0.6,2.108 -0.24533,2.81733 -0.84667,0.71067 -2.108,0.6 -2.81867,-0.24533 -0.70933,-0.84667 -0.59866,-2.108 0.24667,-2.81867"
       style="fill:#ebebeb;fill-opacity:1;fill-rule:nonzero;stroke:none;stroke-width:0.13333333"
       id="path104" /><path
       inkscape:connector-curvature="0"
       d="m 412.37866,395.99201 c 5.524,-9.56533 17.75466,-12.844 27.32133,-7.32 9.56533,5.52267 12.84267,17.75467 7.32,27.32 -5.52267,9.56533 -17.75467,12.84267 -27.32,7.32 -9.56667,-5.52267 -12.844,-17.75467 -7.32133,-27.32"
       style="fill:#ffffff;fill-opacity:1;fill-rule:nonzero;stroke:none;stroke-width:0.13333333"
       id="path106" /><path
       inkscape:connector-curvature="0"
       d="m 412.37866,395.99201 c 5.524,-9.56533 17.75466,-12.844 27.32133,-7.32 9.56533,5.52267 12.84267,17.75467 7.32,27.32 -5.52267,9.56533 -17.75467,12.84267 -27.32,7.32 -9.56667,-5.52267 -12.844,-17.75467 -7.32133,-27.32"
       style="fill:none;stroke:#c0c0c0;stroke-width:2.66666651;stroke-linecap:round;stroke-linejoin:round;stroke-miterlimit:10;stroke-dasharray:none;stroke-opacity:1"
       id="path108" /><path
       inkscape:connector-curvature="0"
       d="m 438.05332,414.29868 c 0.552,-0.95734 1.776,-1.284 2.732,-0.732 0.95734,0.552 1.284,1.77466 0.732,2.732 -0.552,0.956 -1.77466,1.284 -2.732,0.732 -0.956,-0.552 -1.284,-1.776 -0.732,-2.732"
       style="fill:#ebebeb;fill-opacity:1;fill-rule:nonzero;stroke:none;stroke-width:0.13333333"
       id="path110" /><path
       inkscape:connector-curvature="0"
       d="m 433.22399,411.72801 c 0.552,-0.95733 1.77467,-1.28533 2.732,-0.73333 0.956,0.55333 1.284,1.776 0.732,2.73333 -0.552,0.956 -1.776,1.284 -2.732,0.732 -0.95733,-0.55333 -1.284,-1.776 -0.732,-2.732"
       style="fill:#ebebeb;fill-opacity:1;fill-rule:nonzero;stroke:none;stroke-width:0.13333333"
       id="path112" /><path
       inkscape:connector-curvature="0"
       d="m 436.05199,406.82801 c 0.552,-0.956 1.776,-1.284 2.732,-0.732 0.956,0.55333 1.284,1.776 0.732,2.732 -0.552,0.95733 -1.776,1.28533 -2.732,0.732 -0.956,-0.552 -1.284,-1.77467 -0.732,-2.732"
       style="fill:#ebebeb;fill-opacity:1;fill-rule:nonzero;stroke:none;stroke-width:0.13333333"
       id="path114" /><path
       inkscape:connector-curvature="0"
       d="m 440.95066,409.65734 c 0.552,-0.95733 1.776,-1.284 2.732,-0.732 0.95733,0.552 1.284,1.77467 0.732,2.732 -0.552,0.956 -1.77467,1.284 -2.732,0.732 -0.956,-0.552 -1.284,-1.776 -0.732,-2.732"
       style="fill:#ebebeb;fill-opacity:1;fill-rule:nonzero;stroke:none;stroke-width:0.13333333"
       id="path116" /><path
       inkscape:connector-curvature="0"
       d="m 342.75999,190.08802 c 0,-11.04534 8.95467,-20 20,-20 11.04667,0 20,8.95466 20,20 0,11.04666 -8.95333,20 -20,20 -11.04533,0 -20,-8.95334 -20,-20"
       style="fill:#ffffff;fill-opacity:1;fill-rule:nonzero;stroke:none;stroke-width:0.13333333"
       id="path118" /><path
       inkscape:connector-curvature="0"
       d="m 342.75999,190.08802 c 0,-11.04534 8.95467,-20 20,-20 11.04667,0 20,8.95466 20,20 0,11.04666 -8.95333,20 -20,20 -11.04533,0 -20,-8.95334 -20,-20"
       style="fill:none;stroke:#c0c0c0;stroke-width:2.66666651;stroke-linecap:round;stroke-linejoin:round;stroke-miterlimit:10;stroke-dasharray:none;stroke-opacity:1"
       id="path120" /><path
       inkscape:connector-curvature="0"
       d="m 374.14799,193.10535 c 0,-1.104 0.896,-2 2,-2 1.104,0 2,0.896 2,2 0,1.104 -0.896,2 -2,2 -1.104,0 -2,-0.896 -2,-2"
       style="fill:#ebebeb;fill-opacity:1;fill-rule:nonzero;stroke:none;stroke-width:0.13333333"
       id="path122" /><path
       inkscape:connector-curvature="0"
       d="m 368.67999,193.29335 c 0,-1.104 0.896,-2 2,-2 1.104,0 2,0.896 2,2 0,1.10533 -0.896,2 -2,2 -1.104,0 -2,-0.89467 -2,-2"
       style="fill:#ebebeb;fill-opacity:1;fill-rule:nonzero;stroke:none;stroke-width:0.13333333"
       id="path124" /><path
       inkscape:connector-curvature="0"
       d="m 368.67999,187.63735 c 0,-1.10533 0.896,-2 2,-2 1.104,0 2,0.89467 2,2 0,1.104 -0.896,2 -2,2 -1.104,0 -2,-0.896 -2,-2"
       style="fill:#ebebeb;fill-opacity:1;fill-rule:nonzero;stroke:none;stroke-width:0.13333333"
       id="path126" /><path
       inkscape:connector-curvature="0"
       d="m 374.33732,187.63735 c 0,-1.10533 0.89467,-2 2,-2 1.104,0 2,0.89467 2,2 0,1.104 -0.896,2 -2,2 -1.10533,0 -2,-0.896 -2,-2"
       style="fill:#ebebeb;fill-opacity:1;fill-rule:nonzero;stroke:none;stroke-width:0.13333333"
       id="path128" /><path
       inkscape:connector-curvature="0"
       d="m 338.24799,202.14402 c 11.04533,0 20,8.95466 20,19.99999 0,11.04534 -8.95467,20 -20,20 -11.04666,0 -20,-8.95466 -20,-20 0,-11.04533 8.95334,-19.99999 20,-19.99999"
       style="fill:#ffffff;fill-opacity:1;fill-rule:nonzero;stroke:none;stroke-width:0.13333333"
       id="path130" /><path
       inkscape:connector-curvature="0"
       d="m 338.24799,202.14402 c 11.04533,0 20,8.95466 20,19.99999 0,11.04534 -8.95467,20 -20,20 -11.04666,0 -20,-8.95466 -20,-20 0,-11.04533 8.95334,-19.99999 20,-19.99999"
       style="fill:none;stroke:#c0c0c0;stroke-width:2.66666651;stroke-linecap:round;stroke-linejoin:round;stroke-miterlimit:10;stroke-dasharray:none;stroke-opacity:1"
       id="path132" /><path
       inkscape:connector-curvature="0"
       d="m 335.23066,233.53201 c 1.104,0 2,0.89467 2,2 0,1.104 -0.896,2 -2,2 -1.10534,0 -2,-0.896 -2,-2 0,-1.10533 0.89466,-2 2,-2"
       style="fill:#ebebeb;fill-opacity:1;fill-rule:nonzero;stroke:none;stroke-width:0.13333333"
       id="path134" /><path
       inkscape:connector-curvature="0"
       d="m 335.04132,228.06401 c 1.10534,0 2,0.89467 2,2 0,1.104 -0.89466,2 -2,2 -1.104,0 -1.99999,-0.896 -1.99999,-2 0,-1.10533 0.89599,-2 1.99999,-2"
       style="fill:#ebebeb;fill-opacity:1;fill-rule:nonzero;stroke:none;stroke-width:0.13333333"
       id="path136" /><path
       inkscape:connector-curvature="0"
       d="m 340.69866,228.06401 c 1.104,0 2,0.89467 2,2 0,1.104 -0.896,2 -2,2 -1.104,0 -2,-0.896 -2,-2 0,-1.10533 0.896,-2 2,-2"
       style="fill:#ebebeb;fill-opacity:1;fill-rule:nonzero;stroke:none;stroke-width:0.13333333"
       id="path138" /><path
       inkscape:connector-curvature="0"
       d="m 340.69866,233.72001 c 1.104,0 2,0.896 2,2 0,1.10534 -0.896,2 -2,2 -1.104,0 -2,-0.89466 -2,-2 0,-1.104 0.896,-2 2,-2"
       style="fill:#ebebeb;fill-opacity:1;fill-rule:nonzero;stroke:none;stroke-width:0.13333333"
       id="path140" /><path
       inkscape:connector-curvature="0"
       d="m 389.02666,381.40934 c 11.04666,0 20,8.95467 20,20 0,11.04534 -8.95334,20 -20,20 -11.04534,0 -20,-8.95466 -20,-20 0,-11.04533 8.95466,-20 20,-20"
       style="fill:#ffffff;fill-opacity:1;fill-rule:nonzero;stroke:none;stroke-width:0.13333333"
       id="path142" /><path
       inkscape:connector-curvature="0"
       d="m 389.02666,381.40934 c 11.04666,0 20,8.95467 20,20 0,11.04534 -8.95334,20 -20,20 -11.04534,0 -20,-8.95466 -20,-20 0,-11.04533 8.95466,-20 20,-20"
       style="fill:none;stroke:#c0c0c0;stroke-width:2.66666651;stroke-linecap:round;stroke-linejoin:round;stroke-miterlimit:10;stroke-dasharray:none;stroke-opacity:1"
       id="path144" /><path
       inkscape:connector-curvature="0"
       d="m 386.00932,412.79734 c 1.10534,0 2,0.896 2,2 0,1.10534 -0.89466,2 -2,2 -1.104,0 -2,-0.89466 -2,-2 0,-1.104 0.896,-2 2,-2"
       style="fill:#ebebeb;fill-opacity:1;fill-rule:nonzero;stroke:none;stroke-width:0.13333333"
       id="path146" /><path
       inkscape:connector-curvature="0"
       d="m 385.82132,407.32934 c 1.10534,0 2,0.89467 2,2 0,1.104 -0.89466,2 -2,2 -1.104,0 -2,-0.896 -2,-2 0,-1.10533 0.896,-2 2,-2"
       style="fill:#ebebeb;fill-opacity:1;fill-rule:nonzero;stroke:none;stroke-width:0.13333333"
       id="path148" /><path
       inkscape:connector-curvature="0"
       d="m 391.47866,407.32934 c 1.104,0 2,0.89467 2,2 0,1.104 -0.896,2 -2,2 -1.10534,0 -2,-0.896 -2,-2 0,-1.10533 0.89466,-2 2,-2"
       style="fill:#ebebeb;fill-opacity:1;fill-rule:nonzero;stroke:none;stroke-width:0.13333333"
       id="path150" /><path
       inkscape:connector-curvature="0"
       d="m 391.47866,412.98534 c 1.104,0 2,0.896 2,2 0,1.10534 -0.896,2 -2,2 -1.10534,0 -2,-0.89466 -2,-2 0,-1.104 0.89466,-2 2,-2"
       style="fill:#ebebeb;fill-opacity:1;fill-rule:nonzero;stroke:none;stroke-width:0.13333333"
       id="path152" /><path
       inkscape:connector-curvature="0"
       d="m 418.49466,386.26268 c -10.38,3.77733 -21.856,-1.57467 -25.63467,-11.95334 -3.77733,-10.38 1.57467,-21.85733 11.95467,-25.63466 10.37866,-3.77733 21.856,1.57333 25.63333,11.95333 3.77867,10.38 -1.57333,21.856 -11.95333,25.63467"
       style="fill:#ffffff;fill-opacity:1;fill-rule:nonzero;stroke:none;stroke-width:0.13333333"
       id="path154" /><path
       inkscape:connector-curvature="0"
       d="m 418.49466,386.26268 c -10.38,3.77733 -21.856,-1.57467 -25.63467,-11.95334 -3.77733,-10.38 1.57467,-21.85733 11.95467,-25.63466 10.37866,-3.77733 21.856,1.57333 25.63333,11.95333 3.77867,10.38 -1.57333,21.856 -11.95333,25.63467"
       style="fill:none;stroke:#c0c0c0;stroke-width:2.66666651;stroke-linecap:round;stroke-linejoin:round;stroke-miterlimit:10;stroke-dasharray:none;stroke-opacity:1"
       id="path156" /><path
       inkscape:connector-curvature="0"
       d="m 410.59466,355.73601 c -1.03734,0.37733 -2.18534,-0.15733 -2.564,-1.196 -0.37734,-1.03733 0.15733,-2.18533 1.196,-2.564 1.03733,-0.37733 2.18533,0.15867 2.564,1.196 0.37733,1.03733 -0.15867,2.18533 -1.196,2.564"
       style="fill:#ebebeb;fill-opacity:1;fill-rule:nonzero;stroke:none;stroke-width:0.13333333"
       id="path158" /><path
       inkscape:connector-curvature="0"
       d="m 412.64266,360.80934 c -1.03867,0.37867 -2.18667,-0.15733 -2.564,-1.19466 -0.37734,-1.03867 0.15733,-2.18667 1.19466,-2.564 1.03867,-0.37734 2.18667,0.15733 2.564,1.196 0.37734,1.03733 -0.15733,2.18533 -1.19466,2.56266"
       style="fill:#ebebeb;fill-opacity:1;fill-rule:nonzero;stroke:none;stroke-width:0.13333333"
       id="path160" /><path
       inkscape:connector-curvature="0"
       d="m 407.32666,362.74401 c -1.03867,0.37733 -2.18667,-0.15733 -2.564,-1.19467 -0.37734,-1.03866 0.15733,-2.18533 1.196,-2.564 1.03733,-0.37733 2.18533,0.15734 2.56266,1.196 0.37867,1.03734 -0.15733,2.18534 -1.19466,2.56267"
       style="fill:#ebebeb;fill-opacity:1;fill-rule:nonzero;stroke:none;stroke-width:0.13333333"
       id="path162" /><path
       inkscape:connector-curvature="0"
       d="m 405.39199,357.42801 c -1.03867,0.37867 -2.18667,-0.156 -2.564,-1.19467 -0.37733,-1.03866 0.15733,-2.18533 1.196,-2.564 1.03733,-0.37733 2.18533,0.15734 2.56267,1.196 0.37733,1.03734 -0.15734,2.18534 -1.19467,2.56267"
       style="fill:#ebebeb;fill-opacity:1;fill-rule:nonzero;stroke:none;stroke-width:0.13333333"
       id="path164" /><path
       inkscape:connector-curvature="0"
       d="m 268.11199,221.03468 c -11.04533,0 -20,-8.95333 -20,-20 0,-11.04533 8.95467,-20 20,-20 11.04534,0 20,8.95467 20,20 0,11.04667 -8.95466,20 -20,20"
       style="fill:#ffffff;fill-opacity:1;fill-rule:nonzero;stroke:none;stroke-width:0.13333333"
       id="path166" /><path
       inkscape:connector-curvature="0"
       d="m 268.11199,221.03468 c -11.04533,0 -20,-8.95333 -20,-20 0,-11.04533 8.95467,-20 20,-20 11.04534,0 20,8.95467 20,20 0,11.04667 -8.95466,20 -20,20"
       style="fill:none;stroke:#c0c0c0;stroke-width:2.66666651;stroke-linecap:round;stroke-linejoin:round;stroke-miterlimit:10;stroke-dasharray:none;stroke-opacity:1"
       id="path168" /><path
       inkscape:connector-curvature="0"
       d="m 271.12933,189.64668 c -1.10534,0 -2,-0.89466 -2,-2 0,-1.104 0.89466,-2 2,-2 1.104,0 2,0.896 2,2 0,1.10534 -0.896,2 -2,2"
       style="fill:#ebebeb;fill-opacity:1;fill-rule:nonzero;stroke:none;stroke-width:0.13333333"
       id="path170" /><path
       inkscape:connector-curvature="0"
       d="m 271.31733,195.11468 c -1.104,0 -2,-0.89466 -2,-2 0,-1.104 0.896,-2 2,-2 1.10533,0 2,0.896 2,2 0,1.10534 -0.89467,2 -2,2"
       style="fill:#ebebeb;fill-opacity:1;fill-rule:nonzero;stroke:none;stroke-width:0.13333333"
       id="path172" /><path
       inkscape:connector-curvature="0"
       d="m 265.66133,195.11468 c -1.10534,0 -2,-0.89466 -2,-2 0,-1.104 0.89466,-2 2,-2 1.104,0 2,0.896 2,2 0,1.10534 -0.896,2 -2,2"
       style="fill:#ebebeb;fill-opacity:1;fill-rule:nonzero;stroke:none;stroke-width:0.13333333"
       id="path174" /><path
       inkscape:connector-curvature="0"
       d="m 265.66133,189.45868 c -1.10534,0 -2,-0.896 -2,-2 0,-1.10533 0.89466,-2 2,-2 1.104,0 2,0.89467 2,2 0,1.104 -0.896,2 -2,2"
       style="fill:#ebebeb;fill-opacity:1;fill-rule:nonzero;stroke:none;stroke-width:0.13333333"
       id="path176" /></g></svg>